<?xml version="1.0" encoding="utf-8"?>
<!-- Generator: Adobe Illustrator 23.0.3, SVG Export Plug-In . SVG Version: 6.00 Build 0)  -->
<svg version="1.1" id="Layer_1" xmlns="http://www.w3.org/2000/svg" xmlns:xlink="http://www.w3.org/1999/xlink" x="0px" y="0px"
	 viewBox="0 0 320 320" style="enable-background:new 0 0 320 320;" xml:space="preserve">
<style type="text/css">
	.st0{fill:#2E55A5;}
	.st1{fill:#119962;}
	.st2{fill:#F7505E;}
	.st3{fill:#FFFEF9;}
	.st4{fill:#FFCC50;}
</style>
<g>
	<polygon class="st0" points="39.8,84.7 40.4,61.9 271.9,64.1 271.4,86.8 	"/>
	<polygon class="st0" points="3.2,197.3 4.2,174.6 311.4,186.7 310.4,209.5 	"/>
	<polygon class="st0" points="10,140.9 8.3,120.1 315.1,113.2 316.8,134 	"/>
	<polygon class="st0" points="36.1,259.6 36.4,236.8 265,243.7 264.8,266.5 	"/>
	<path class="st1" d="M27.1,200.2l41.1,39.2l13,2.1l-1.1-12.5l-42.4-39.5C37.7,189.6,27.6,200.2,27.1,200.2z"/>
	<path class="st2" d="M273,171.1l-15.9,29.7c0,0-22.8,3.7-24.9,6.4c-1.6,2-1.1,13.3-1.1,13.3l38.2,20.7c0,0,8.2-4.6,9.5-6.9
		c1.6-2.7-6.4-26-6.4-26l14.3-30.7c0,0,6.9,0.5,8.5-2.1c0.4-0.6-22.9-13.9-23.3-13.3C269.8,165.8,273,171.1,273,171.1z"/>
	<path class="st3" d="M267.2,200.8c-83.1-36.2-84.8-31.3-84.8-31.3s3.2,28.1,17,55.6c6.8,13.6,35.3,49.2,30.2,63.6
		c-2.7,7.8-10.2,12.5-18,10.1c-16.6-5.2-30.6-48.3-46.1-56.2c-6.6-3.4-17.3-6.5-23.3-2.1c-12.8,9.3-35.4,57-49.3,64.7
		c-8.4,4.7-16.8,1.7-21.2-6.9c-7.5-14.7,23.9-41.3,31.3-58.3c21.6-49.4,15.9-63.6,15.9-63.6s-26,0-56.2,54.6
		c-7.6,13.7-22.7-3.2-22.8-10.6c-0.4-21.7,58.2-69,81.6-77.4c7.4-2.6,4.5-28.5,21.2-33.4c27-8,30.7,21.7,36.6,23.8
		c15.6,5.7,84.9,33.2,97.5,44C287.3,186.5,287.9,209.8,267.2,200.8z"/>
	<polygon class="st4" points="177.6,46 180.3,52.4 206.2,46.5 201.5,36.5 	"/>
	<polygon class="st4" points="143.7,34.4 144.2,12.6 157,15.3 147.9,35.9 	"/>
	<polygon class="st4" points="120.4,38.6 102.4,22.2 96,30.6 116.7,42.8 	"/>
	<polygon class="st4" points="83.8,61.4 107.1,64.6 106.6,71.5 83.3,70.9 	"/>
	<polygon class="st4" points="182.4,72 209.4,75.7 205.7,88.4 180.8,77.3 	"/>
	<path class="st4" d="M171.3,69.9c0-12.7-5.3-21.2-10.1-23.3c-4.8-2.1-15.4-6.4-23.9-3.7c-8.5,2.7-21.7,6.9-19.6,27
		c1.1,10.2,4.8,14.8,13.3,16.4c5.3,1,7.7,1,8.8,0.8l-2.4,2.4l2.1,1.6l-2.1,2.1l2.7,1.6l-2.1,2.7l4.2,2.7l13.3-1.6l3.7-3.2l-3.7-1.6
		l3.2-2.1l-2.6-2.1l2.6-2.1l-3.2-1.6C155.4,85.8,171.3,82.6,171.3,69.9z M156.4,75.7l-4.2,0.5l-4.8-4.2l-2.1,5.8h-2.6l-4.2-3.7
		l-2.6,4.8l-4.2-0.5l6.4-11.7l5.3,6.9l2.6-9l6.9,6.9l1.1-3.7l3.7,0.5L156.4,75.7z"/>
</g>
</svg>
