<?xml version="1.0" encoding="utf-8"?>
<!-- Generator: Adobe Illustrator 23.0.3, SVG Export Plug-In . SVG Version: 6.00 Build 0)  -->
<svg version="1.1" id="Layer_1" xmlns="http://www.w3.org/2000/svg" xmlns:xlink="http://www.w3.org/1999/xlink" x="0px" y="0px"
	 width="320px" height="240px" viewBox="0 0 320 240" style="enable-background:new 0 0 320 240;" xml:space="preserve">
<style type="text/css">
	.st0{fill:#6290E7;}
	.st1{fill:#F7505E;}
	.st2{fill:#FFCC50;}
	.st3{fill:#FFFEF9;}
	.st4{fill:#119962;}
</style>
<g>
	<polygon class="st0" points="295.1,133 297.8,153.6 24.4,165.1 21.8,144.5 	"/>
	<polygon class="st0" points="317.7,205.1 316.9,225.9 2.9,204.9 3.7,184.1 	"/>
	<polygon class="st0" points="20.1,96.4 19.2,77.3 299.5,81.9 300.3,101 	"/>
	
		<rect x="94.6" y="-61.5" transform="matrix(8.862802e-02 -0.9961 0.9961 8.862802e-02 63.2075 134.2695)" class="st0" width="20.8" height="188.2"/>
</g>
<polygon class="st1" points="300.6,146.1 282.7,166.8 267.5,169.1 273.2,180.8 290.3,177.4 310.6,156.5 308.8,154.8 319.8,144 
	318,142.3 307.5,153.3 "/>
<path class="st2" d="M151.4,154.6c7.9-2.2,29-11,41.8-24.2c2.8-2.9,0.3,18-11.2,40.9c-5.6,11.3-5.1,36.2-4.4,48.8
	c0.4,8.4,17.6,9.2,20.7,0.4c4.8-13.7-2.7-37.4,10.1-44c5.5-2.8,23.6-3.2,28.6,0.4c10.6,7.7,12.2,24.6,7.9,45.3
	c-2.2,10.6,17.5,10.2,21.1,3.1c6.2-12.2,3.5-33-2.6-47.1c-17.9-41-13.2-52.8-13.2-52.8s20.4,3.1,28.3,37.4c2.9,12.7,18,12.8,18.9,0
	c1.2-17.9-28-55-53.2-66.4c-6-2.7-8.9-25.1-23.3-25.1c-20.5,0-21.2,14.2-21.1,19.4c0.4,22.4-40.9,38.7-56.8,45.8
	C125.2,144.4,125.2,161.8,151.4,154.6z"/>
<path class="st3" d="M144.2,155.9c-7.9-2.2-29-11-41.8-24.2c-2.8-2.9-0.3,18,11.2,40.9c5.6,11.3,5.1,36.2,4.4,48.8
	c-0.4,8.4-17.6,9.2-20.7,0.4c-4.8-13.7,2.7-37.4-10.1-44c-5.5-2.8-23.6-3.2-28.6,0.4C47.9,186,46.2,202,42.2,222.8
	C40,234.2,22.6,229,22.9,221c0.4-15,3.2-27.3,9.3-41.4c17.9-41,13.2-52.8,13.2-52.8S3.5,129.9,0.9,85.5c-0.8-13,16.7-23.3,18.5-1.8
	c1.5,17.9,11.4,24.6,28.2,20.2c6.3-1.7,9.8-21.9,23.3-26.8c20.7-7.5,25.1,9.8,25,15c-0.4,22.4,40.9,38.7,56.8,45.8
	C170.3,145.7,170.4,163.2,144.2,155.9z"/>
<path class="st3" d="M296.6,36.2c-0.6-13.9-21.1-22.4-38.7-22.4c-9.5,0-25.5,1.3-29.9,14.1s-5.7,24.6,10.1,30.4
	c14.4,5.2,15.7,4.2,15.8,4c-0.2,0.5-2.3,6.7-4.4,8.8c-2.2,2.2-5.3,3.1-5.3,3.1s14.5,1.8,20.2-7s9-1.2,20.7-9.2
	C293.5,52,297,45.9,296.6,36.2z M260.5,33.6l-2.2,4h-9.4c0,0.9,0,1.9,0.1,2.9l7.6,0.2l-1.8,4l-4.9-0.1c0.9,2,2.6,3.3,5.4,3.7
	c5.7,0.6,7.5-3.1,7.5-3.1l4.8,3.5c0,0,0,1.3-2.2,3.5s-6.6,2.2-11.4,2.2s-8.8-4-10.1-7.5c-0.3-0.7-0.5-1.6-0.7-2.5l-4.6-0.1l1.8-4
	l2.4,0.1c0-0.9-0.1-1.8,0-2.7H238l2.2-3.5l2.6-0.1c0.4-3.1,1.7-9.8,11-10.5c11.4-0.9,14.5,4,14.5,4l-4,4.8c0,0-1.3-1.3-4.8-2.6
	c-2.2-0.8-5.3-0.4-7.9,1.3c-1,0.7-1.7,1.7-2.2,2.9L260.5,33.6z M275.9,51.6l-4-0.9l0.4-3.1l4.4,0.4L275.9,51.6z M276.8,45.9
	l-3.5-0.9l-0.4-18.9l8.8,1.8L276.8,45.9z"/>
<path class="st3" d="M108.2,59.5c0,0-2.6,2.6-0.9,6.6c2.3,5.1-1.8,11.9-1.8,11.9S106,66.1,92,63.9c-7.8-1.2-18.9,1.3-26.8-6.6
	c-12.4-12.4-11.9-22-4-34.3S82.3,8.5,99,9.8s31.7,5.7,32.1,24.2s-4.8,20.2-12.3,24.6S108.2,59.5,108.2,59.5z"/>
<polygon class="st4" points="75.7,41.9 88.9,14.2 113.5,31.4 101.2,33.6 110.4,50.7 86.7,56.9 88,36.6 "/>
</svg>
