<?xml version="1.0" encoding="utf-8"?>
<!-- Generator: Adobe Illustrator 23.0.3, SVG Export Plug-In . SVG Version: 6.00 Build 0)  -->
<svg version="1.2" baseProfile="tiny" id="Layer_1" xmlns="http://www.w3.org/2000/svg" xmlns:xlink="http://www.w3.org/1999/xlink"
	 x="0px" y="0px" width="320px" height="320px" viewBox="0 0 320 320" xml:space="preserve">
<rect x="153.1" y="137.7" transform="matrix(0.1524 -0.9883 0.9883 0.1524 -116.1011 385.5384)" fill="#2E55A5" width="27.1" height="245.4"/>
<polygon fill="#2E55A5" points="18.9,212 16.9,185 312,168.1 314,195.1 "/>
<polygon fill="#2E55A5" points="12.4,135.8 12.6,108.7 315.2,107.6 315,134.8 "/>
<polygon fill="#2E55A5" points="41.1,77.4 39.5,50.3 286,43.9 287.6,71 "/>
<path fill="#FFCC50" d="M213.5,124.9c-62.2-27.1-63.5-23.4-63.5-23.4s2.4,21,12.7,41.6c5.1,10.2,26.4,36.8,22.6,47.6
	c-2,5.8-7.6,9.4-13.5,7.5c-12.4-3.9-22.9-36.1-34.5-42c-5-2.5-12.9-4.9-17.5-1.6c-9.6,7-26.5,42.7-36.9,48.4
	c-6.3,3.5-12.6,1.3-15.9-5.2c-5.6-11,17.8-30.9,23.4-43.6c16.2-37,11.9-47.6,11.9-47.6s-19.4,0-42,40.9c-5.7,10.3-17-2.4-17.1-7.9
	c-0.3-16.2,43.5-51.6,61.1-57.9c5.6-2,3.4-21.3,15.9-25c20.2-5.9,23,16.3,27.4,17.8c11.7,4.2,63.5,24.9,73,32.9
	C228.6,114.2,229,131.7,213.5,124.9z"/>
<path fill="#F7505E" d="M288.7,155.7c-75-32.7-76.5-28.2-76.5-28.2s2.9,25.3,15.3,50.2c6.1,12.2,31.8,44.3,27.2,57.3
	c-2.5,7-9.2,11.3-16.2,9.1c-15-4.7-27.6-43.5-41.6-50.7c-6-3.1-15.6-5.9-21-1.9c-11.6,8.4-31.9,51.4-44.4,58.3
	c-7.6,4.2-15.2,1.5-19.1-6.2c-6.8-13.3,21.5-37.3,28.2-52.6c19.5-44.6,14.3-57.3,14.3-57.3s-23.4,0-50.7,49.2
	c-6.8,12.4-20.4-2.9-20.5-9.6c-0.3-19.5,52.4-62.2,73.6-69.8c6.7-2.4,4.1-25.7,19.1-30.1c24.4-7.2,27.7,19.6,33,21.5
	c14.1,5.1,76.5,30,87.9,39.7C306.8,142.8,307.3,163.8,288.7,155.7z"/>
<path fill="#FFFEF9" d="M269.4,189.7c-92.5-40.3-94.4-34.8-94.4-34.8s3.5,31.3,18.9,62c7.6,15.1,39.3,54.7,33.6,70.8
	c-3,8.7-11.3,13.9-20.1,11.2c-18.5-5.8-34.1-53.7-51.3-62.5c-7.4-3.8-19.2-7.2-26-2.4c-14.3,10.3-39.4,63.4-54.9,72
	c-9.4,5.2-18.7,1.9-23.6-7.7c-8.3-16.4,26.5-46,34.8-64.9c24.1-55,17.7-70.8,17.7-70.8s-28.9,0-62.5,60.8
	c-8.4,15.3-25.2-3.5-25.4-11.8c-0.4-24.1,64.7-76.8,90.9-86.1c8.3-2.9,5.1-31.7,23.6-37.2c30.1-8.8,34.2,24.2,40.7,26.5
	c17.4,6.3,94.5,37,108.6,49C291.8,173.8,292.4,199.7,269.4,189.7z"/>
</svg>
