<?xml version="1.0" encoding="utf-8"?>
<!-- Generator: Adobe Illustrator 23.0.3, SVG Export Plug-In . SVG Version: 6.00 Build 0)  -->
<svg version="1.1" id="Layer_1" xmlns="http://www.w3.org/2000/svg" xmlns:xlink="http://www.w3.org/1999/xlink" x="0px" y="0px"
	 width="320px" height="320px" viewBox="0 0 320 320" style="enable-background:new 0 0 320 320;" xml:space="preserve">
<style type="text/css">
	.st0{fill:#6290E7;}
	.st1{fill:#FFCC50;}
	.st2{fill:#119962;}
	.st3{fill:#FFFEF9;}
</style>
<rect x="82.2" y="75.9" transform="matrix(0.9999 -1.656969e-02 1.656969e-02 0.9999 -1.4517 3.294)" class="st0" width="231.7" height="26.7"/>
<path class="st1" d="M187.2,74.4c21.3,0.6,30.2,19,28.6,29.7c-1.7,10.6-11.2,23.5-27.4,24.1s-32.5-7.3-32.5-26.9
	S176.8,74.2,187.2,74.4z"/>
<polygon class="st0" points="309.5,132.5 308.3,159.2 10.5,148.6 11.7,121.9 "/>
<polygon class="st0" points="295.3,252.5 294.3,279.2 16.3,277.8 17.3,251.1 "/>
<polygon class="st2" points="94.2,199.9 124.4,159.6 127.8,163.5 149.1,133.8 154.1,134.9 184.9,92.9 203.4,129.9 207.3,133.2 
	215.7,151.2 236.4,123.2 246,142.2 249.3,138.3 270.6,181.4 281.8,169.6 302,203.2 243.7,207.7 159.2,208.8 125,207.2 "/>
<polygon class="st0" points="313.4,201.6 315.2,228.3 7.7,218.9 5.9,192.2 "/>
<path class="st3" d="M50,236.8c-31.9-21.3,19-20.1,19-20.1s-2.3,20-12,39.5c-4.8,9.6-22.3,29.1-18.7,39.4c1.9,5.5,7.3,6.2,12.9,4.5
	c11.8-3.7,14.6-31.4,33.6-35.3c5.2-1.1,12.5-2,16.8,1.1c9.1,6.6,17.5,15.9,21.8,26.3c2.8,6.7,17.1,6.7,20.2,0.6
	c5.3-10.5-16.6-28.3-21.8-40.3c-15.4-35.1-7.3-34.7-7.3-34.7s104.7-39.2,7.3-54.3c-8.9-1.4-13.6,13.6-4.5,14.6
	c56.6,6.2-3.9,26.3-4.9,19.9c-0.9-5.5-0.7-22.7-16.9-21.6c-20.5,1.4-23.6,21.3-28,21.3c-18.5,0-84,17.4-29.7,51
	C46.1,253.8,63.3,245.7,50,236.8z"/>
<polygon class="st1" points="180.2,67.3 190.4,44.3 195,68.3 "/>
<polygon class="st1" points="166.4,71.1 159.2,67.2 159.2,76.1 "/>
<polygon class="st1" points="152.6,86.6 122.8,86.2 148.2,98.3 "/>
<polygon class="st1" points="149.6,110.3 142.9,118.7 155.2,118.1 "/>
<polygon class="st1" points="218.5,116.4 225.8,126 211.8,125.4 "/>
<polygon class="st1" points="222.4,109.2 246.5,104.1 223.6,93.5 "/>
<polygon class="st1" points="215.2,80 219.6,70.5 208.4,75.6 "/>
</svg>
