<?xml version="1.0" encoding="utf-8"?>
<!-- Generator: Adobe Illustrator 23.0.3, SVG Export Plug-In . SVG Version: 6.00 Build 0)  -->
<svg version="1.1" id="Layer_1" xmlns="http://www.w3.org/2000/svg" xmlns:xlink="http://www.w3.org/1999/xlink" x="0px" y="0px"
	 width="320px" height="320px" viewBox="0 0 320 320" style="enable-background:new 0 0 320 320;" xml:space="preserve">
<style type="text/css">
	.st0{fill:#6290E7;}
	.st1{fill:#119962;}
	.st2{fill:#FFFEF9;}
	.st3{fill:#F7505E;}
</style>
<rect x="44.5" y="39.6" transform="matrix(0.9996 -2.924742e-02 2.924742e-02 0.9996 -1.4882 4.9629)" class="st0" width="248.8" height="27.5"/>
<polygon class="st0" points="317.4,115.4 316.5,142.9 17.2,127.6 18.2,100.1 "/>
<polygon class="st0" points="263.4,176.9 263.9,204.4 3,210.1 2.6,182.6 "/>
<polygon class="st1" points="37.3,209.3 65.7,191.7 58.8,180.2 61.1,173.3 72.6,166.4 78.8,168.7 96.4,197 95.7,202.4 84.9,210.9 
	78.8,210.1 71.9,200.1 43.5,217.8 48.1,224.7 48.1,230.8 37.3,237.7 28.9,236.2 11.3,211.6 12.8,203.2 23.5,196.3 30.4,199.3 "/>
<polygon class="st0" points="296.8,241.4 297.4,268.9 47.5,265.9 46.8,238.4 "/>
<path class="st2" d="M115.8,94.3c10.3,0.5,7-38.2,34.9-38.8c35-0.9,32.1,35.6,39.7,38.4c7,2.5,13.7,5,27.6,5.5
	c6.4,0.3,6.9-15.2,19.4-15.9c13.1-0.7,18.3,12.6,23.5,9.8c11.3-6.1,21.7-29.4,20.7-47.8c-0.8-16,29.4-25.9,30.4,3.5
	c3.5,100.9-119.6,76.7-119.6,76.7s2.2,25.1,15.9,62.9c6.6,18.1,22.5,79.3,15.9,98.2c-3.5,10.1-29,12.4-32.5,2.1
	c-7.2-21.5,2.1-53.2-19.4-68.4c-7.9-5.6-21.9-7.4-30.4-2.8c-50.5,27.6-4,68.8-22.1,78.8c-11,6.1-24.7,2.9-30.4-8.3
	c-9.8-19.2-6.5-48.4,1.4-71.2c22.9-66.4,20.7-82.9,20.7-82.9s-96.1-22.8-47.7,61.5c10.1,17.6-10.8,26.6-23.5,11.1
	C-12.2,142.2,43.9,90.9,115.8,94.3z"/>
<polygon class="st3" points="259.5,80.7 271.9,66.2 263.6,61.4 255.3,78.6 "/>
<polygon class="st3" points="242.2,76.6 245.7,55.1 231.1,53.8 236.7,77.3 "/>
<polygon class="st3" points="222.8,79.3 209.7,66.9 204.9,77.3 220.1,84.2 "/>
</svg>
