<?xml version="1.0" encoding="utf-8"?>
<!-- Generator: Adobe Illustrator 23.0.3, SVG Export Plug-In . SVG Version: 6.00 Build 0)  -->
<svg version="1.2" baseProfile="tiny" id="Layer_1" xmlns="http://www.w3.org/2000/svg" xmlns:xlink="http://www.w3.org/1999/xlink"
	 x="0px" y="0px" width="320px" height="320px" viewBox="0 0 320 320" xml:space="preserve">
<g>
	<polygon fill="#6290E7" points="280.9,220.9 281.3,243.7 49.9,251.1 49.5,228.3 	"/>
	<polygon fill="#6290E7" points="316.1,105.1 316.9,127.9 9.7,140.4 8.9,117.6 	"/>
	<polygon fill="#6290E7" points="309.7,179.5 310.1,200.4 3.5,187.8 3.1,166.9 	"/>
	<polygon fill="#6290E7" points="274,48.7 274.7,71.5 46,74 45.3,51.2 	"/>
</g>
<path fill="#FFCC50" d="M121.6,193.9l-21.8,9.9l-8.7-6.8l-29.2,9.9v9.9l-23,8.1l22.4,50.4l83.9-29.8L121.6,193.9z M68.1,215v-5
	l18.7-6.2l4.4,3.1L68.1,215z"/>
<polygon fill="#F7505E" points="220.9,58.8 215.4,97.1 199,111.4 214.7,121 232.5,103.9 240.7,63.6 237.3,62.9 242.1,41.7 238.7,41 
	234.6,62.2 "/>
<path fill="#36499B" d="M246.6,75.1c70.3,11.8,34.8,68.4-31.1,66.5c-5.6-0.2-1.9,34.8,14.3,67.1c8,15.9,7.2,51.1,6.2,69
	c-0.6,11.8-24.9,13.1-29.2,0.6c-6.8-19.4,3.9-52.9-14.3-62.2c-7.8-4-33.3-4.5-40.4,0.6c-15,10.9-17.3,34.8-11.2,64
	c3.1,14.9-24.7,14.4-29.8,4.4c-8.8-17.3-5-46.6,3.7-66.5c25.4-58,18.7-74.6,18.7-74.6s-59.7-9.9-42.9,47.9
	c5.1,17.6-26.7,28-30.5,4.4c-4-25.1-14.9-72.7,75.2-87.7c9.1-1.5,14.7-34.7,34.2-40.4c31.7-9.3,32.9,18.2,32.9,25.5
	c0,39.8,97,10.6,28,5C214.1,97.4,220.5,70.8,246.6,75.1z"/>
<polygon fill="#F7505E" points="206.1,105.2 199,111.4 214.7,121 222.4,113.6 "/>
</svg>
